<svg width="540" height="110" viewBox="0 0 540 110" fill="none" xmlns="http://www.w3.org/2000/svg">
<path d="M38.7886 109.668C31.0681 109.668 24.2777 107.855 18.4176 104.227C12.6505 100.599 8.13909 95.7157 4.88345 89.5765C1.62782 83.4373 0 76.647 0 69.2055C0 61.6711 1.62782 54.8342 4.88345 48.695C8.13909 42.5558 12.697 37.7189 18.5571 34.1842C24.4173 30.5565 31.1611 28.7426 38.7886 28.7426C44.1836 28.7426 48.7415 29.5333 52.4623 31.1146C56.183 32.6029 59.2991 34.6493 61.8106 37.2538C64.4151 39.7653 66.4615 42.6023 67.9498 45.765V91.5299C65.7173 96.832 62.2757 101.204 57.6248 104.645C52.9739 107.994 46.6951 109.668 38.7886 109.668ZM41.1605 91.809C44.7883 91.809 48.1834 90.9253 51.346 89.158C54.5087 87.2976 57.0201 84.6466 58.8805 81.2049C60.8339 77.7632 61.8106 73.7634 61.8106 69.2055C61.8106 64.4616 60.8339 60.4153 58.8805 57.0667C57.0201 53.718 54.5087 51.16 51.346 49.3927C48.1834 47.5323 44.7883 46.6021 41.1605 46.6021C37.2538 46.6021 33.7191 47.5323 30.5565 49.3927C27.4869 51.16 25.0219 53.718 23.1615 57.0667C21.3012 60.4153 20.371 64.4616 20.371 69.2055C20.371 73.8565 21.3012 77.9027 23.1615 81.3444C25.0219 84.6931 27.4869 87.2976 30.5565 89.158C33.7191 90.9253 37.2538 91.809 41.1605 91.809ZM62.2292 107.994V30.1379H82.042V107.994H62.2292Z" fill="#202020"/>
<path d="M109.232 90.4137L104.488 71.8566L145.091 30.1379H170.066L109.232 90.4137ZM97.6517 107.994V16.1852H87.0476V0H117.744V107.994H97.6517ZM146.626 107.994L119.557 67.9498L135.882 58.4619L170.206 107.994H146.626Z" fill="#202020"/>
<path d="M207.611 109.668C199.891 109.668 193.1 107.855 187.24 104.227C181.473 100.599 176.962 95.7157 173.706 89.5765C170.45 83.4373 168.823 76.647 168.823 69.2055C168.823 61.6711 170.45 54.8342 173.706 48.695C176.962 42.5558 181.52 37.7189 187.38 34.1842C193.24 30.5565 199.984 28.7426 207.611 28.7426C213.006 28.7426 217.564 29.5333 221.285 31.1146C225.006 32.6029 228.122 34.6493 230.633 37.2538C233.238 39.7653 235.284 42.6023 236.772 45.765V91.5299C234.54 96.832 231.098 101.204 226.447 104.645C221.796 107.994 215.518 109.668 207.611 109.668ZM209.983 91.809C213.611 91.809 217.006 90.9253 220.169 89.158C223.331 87.2976 225.843 84.6466 227.703 81.2049C229.656 77.7632 230.633 73.7634 230.633 69.2055C230.633 64.4616 229.656 60.4153 227.703 57.0667C225.843 53.718 223.331 51.16 220.169 49.3927C217.006 47.5323 213.611 46.6021 209.983 46.6021C206.076 46.6021 202.542 47.5323 199.379 49.3927C196.309 51.16 193.844 53.718 191.984 57.0667C190.124 60.4153 189.194 64.4616 189.194 69.2055C189.194 73.8565 190.124 77.9027 191.984 81.3444C193.844 84.6931 196.309 87.2976 199.379 89.158C202.542 90.9253 206.076 91.809 209.983 91.809ZM231.052 107.994V30.1379H250.865V107.994H231.052Z" fill="#202020"/>
<path d="M283.078 107.994L259.637 30.1379H280.566L295.914 86.786H291.31L307.216 30.1379H328.703L343.493 86.786H338.889L355.353 30.1379H375.166L351.167 107.994H330.657L314.193 52.1832H319.355L302.472 107.994H283.078Z" fill="#202020"/>
<path d="M414.722 109.668C407.001 109.668 400.211 107.855 394.351 104.227C388.584 100.599 384.072 95.7157 380.817 89.5765C377.561 83.4373 375.933 76.647 375.933 69.2055C375.933 61.6711 377.561 54.8342 380.817 48.695C384.072 42.5558 388.63 37.7189 394.49 34.1842C400.351 30.5565 407.094 28.7426 414.722 28.7426C420.117 28.7426 424.675 29.5333 428.396 31.1146C432.116 32.6029 435.232 34.6493 437.744 37.2538C440.348 39.7653 442.395 42.6023 443.883 45.765V91.5299C441.651 96.832 438.209 101.204 433.558 104.645C428.907 107.994 422.628 109.668 414.722 109.668ZM417.094 91.809C420.722 91.809 424.117 90.9253 427.279 89.158C430.442 87.2976 432.954 84.6466 434.814 81.2049C436.767 77.7632 437.744 73.7634 437.744 69.2055C437.744 64.4616 436.767 60.4153 434.814 57.0667C432.954 53.718 430.442 51.16 427.279 49.3927C424.117 47.5323 420.722 46.6021 417.094 46.6021C413.187 46.6021 409.652 47.5323 406.49 49.3927C403.42 51.16 400.955 53.718 399.095 57.0667C397.235 60.4153 396.304 64.4616 396.304 69.2055C396.304 73.8565 397.235 77.9027 399.095 81.3444C400.955 84.6931 403.42 87.2976 406.49 89.158C409.652 90.9253 413.187 91.809 417.094 91.809ZM438.163 107.994V30.1379H457.975V107.994H438.163Z" fill="#202020"/>
<path d="M473.585 107.994V30.1379H493.677V43.393L492.142 39.7653C492.979 37.8119 494.328 35.998 496.188 34.3237C498.142 32.6494 500.514 31.2541 503.304 30.1379C506.095 29.0217 509.211 28.4636 512.653 28.4636C518.42 28.4636 523.303 29.7193 527.303 32.2308C531.396 34.6493 534.512 38.091 536.651 42.5558C538.884 47.0207 540 52.4158 540 58.741V107.994H519.908V60.2758C519.908 55.7179 518.699 52.0902 516.28 49.3927C513.862 46.6951 510.792 45.3464 507.072 45.3464C504.653 45.3464 502.421 45.951 500.374 47.1602C498.421 48.2765 496.793 49.9508 495.491 52.1832C494.282 54.4156 493.677 57.1597 493.677 60.4153V107.994H473.585Z" fill="#202020"/>
</svg>
